<svg width="870" height="220" viewBox="0 0 870 220" fill="none" xmlns="http://www.w3.org/2000/svg">
<path d="M0.700002 208.4L2.5 190.4H4.3C12.1 197.2 20.9 202.5 30.7 206.3C40.5 210.1 50.2 212 59.8 212C73.4 212 84.4 208.3 92.8 200.9C101.2 193.3 105.4 183.2 105.4 170.6C105.4 163.6 103.8 157.1 100.6 151.1C97.6 145.1 92.5 139 85.3 132.8C78.3 126.6 68.6 119.9 56.2 112.7C47.6 107.7 39.4 102.5 31.6 97.1C23.8 91.5 17.4 85.1 12.4 77.9C7.4 70.5 4.9 61.7 4.9 51.5C4.9 36.3 10.4 24.1 21.4 14.9C32.4 5.49999 46.9 0.799986 64.9 0.799986C72.9 0.799986 81.5 1.69999 90.7 3.49999C99.9 5.09999 107 7.19999 112 9.8L110.5 26.6H108.7C97.3 14.2 82.7 7.99998 64.9 7.99998C52.1 7.99998 41.8 11.3 34 17.9C26.2 24.3 22.3 33 22.3 44C22.3 52.2 24.4 59.3 28.6 65.3C33 71.1 38.6 76.4 45.4 81.2C52.2 85.8 59.5 90.3 67.3 94.7C76.3 99.9 85 105.4 93.4 111.2C102 117 109 124 114.4 132.2C120 140.2 122.8 150.3 122.8 162.5C122.8 173.7 120.2 183.6 115 192.2C109.8 200.6 102.4 207.2 92.8 212C83.4 216.8 72.4 219.2 59.8 219.2C51.8 219.2 42.4 218.2 31.6 216.2C20.8 214.2 10.5 211.6 0.700002 208.4ZM103.091 113.5C103.091 98.6133 105.701 84.79 110.921 72.03C116.334 59.0767 123.777 47.8633 133.251 38.39C142.917 28.7233 154.131 21.28 166.891 16.06C179.844 10.6467 193.764 7.93999 208.651 7.93999C223.537 7.93999 237.361 10.6467 250.121 16.06C263.074 21.28 274.287 28.7233 283.761 38.39C293.427 47.8633 300.871 59.0767 306.091 72.03C311.504 84.79 314.211 98.6133 314.211 113.5C314.211 128.387 311.504 142.307 306.091 155.26C300.871 168.02 293.427 179.233 283.761 188.9C274.287 198.373 263.074 205.817 250.121 211.23C237.361 216.45 223.537 219.06 208.651 219.06C193.764 219.06 179.844 216.45 166.891 211.23C154.131 205.817 142.917 198.373 133.251 188.9C123.777 179.233 116.334 168.02 110.921 155.26C105.701 142.307 103.091 128.387 103.091 113.5ZM125.131 113.5C125.131 133.22 128.611 150.523 135.571 165.41C142.531 180.103 152.294 191.607 164.861 199.92C177.427 208.04 192.024 212.1 208.651 212.1C225.277 212.1 239.874 208.04 252.441 199.92C265.007 191.607 274.771 180.007 281.731 165.12C288.691 150.233 292.171 133.027 292.171 113.5C292.171 93.9733 288.691 76.8633 281.731 62.17C274.771 47.2833 265.007 35.6833 252.441 27.37C239.874 19.0567 225.277 14.9 208.651 14.9C192.024 14.9 177.427 19.0567 164.861 27.37C152.487 35.49 142.724 46.9933 135.571 61.88C128.611 76.5733 125.131 93.78 125.131 113.5ZM303.972 215L311.222 7.93999H314.702L460.572 184.26H462.312L455.932 12H475.652L468.402 219.06H464.922L319.052 42.74H317.312L323.692 215H303.972ZM465.579 215V12H529.379C551.806 12 571.333 16.2533 587.959 24.76C604.586 33.2667 617.539 45.1567 626.819 60.43C636.099 75.51 640.739 93.2 640.739 113.5C640.739 133.8 636.099 151.587 626.819 166.86C617.539 181.94 604.586 193.733 587.959 202.24C571.333 210.747 551.806 215 529.379 215H465.579ZM529.379 18.96H485.299V208.04H529.379C557.413 208.04 579.259 199.727 594.919 183.1C610.773 166.473 618.699 143.273 618.699 113.5C618.699 83.7267 610.773 60.5267 594.919 43.9C579.259 27.2733 557.413 18.96 529.379 18.96ZM621.871 215V4.99999H713.371V19.7L660.871 12.8C651.671 11.6 645.471 11 642.271 11V102.5C644.871 102.5 651.071 102.2 660.871 101.6L710.071 98.6V112.4L660.871 109.4C651.071 108.8 644.871 108.5 642.271 108.5V209C645.871 209 652.171 208.4 661.171 207.2L714.271 200.3V215H621.871ZM714.004 4.99999H754.204C775.404 4.99999 791.804 9.49999 803.404 18.5C815.204 27.3 821.104 39.7 821.104 55.7C821.104 68.1 817.404 78.4 810.004 86.6C802.804 94.8 792.304 100.3 778.504 103.1V104.9C791.704 107.5 802.504 113.7 810.904 123.5C819.304 133.3 825.604 145.4 829.804 159.8C833.604 173 837.304 183.3 840.904 190.7C844.704 197.9 848.804 203.1 853.204 206.3C857.804 209.5 863.204 211.8 869.404 213.2V215H857.104C848.304 215 841.004 213.4 835.204 210.2C829.604 207 824.804 201.6 820.804 194C816.804 186.4 813.004 175.9 809.404 162.5C803.604 141.9 795.904 127.3 786.304 118.7C776.704 110.1 765.004 105.8 751.204 105.8H749.404V100.4H751.204C783.404 100.4 799.504 85.6 799.504 56C799.504 26.8 784.404 12.2 754.204 12.2H734.404V215H714.004V4.99999Z" fill="#807D77"/>
</svg>
