<svg width="1370" height="607" viewBox="0 0 1370 607" fill="none" xmlns="http://www.w3.org/2000/svg">
<path d="M51.7 295.4L53.5 277.4H55.3C63.1 284.2 71.9 289.5 81.7 293.3C91.5 297.1 101.2 299 110.8 299C124.4 299 135.4 295.3 143.8 287.9C152.2 280.3 156.4 270.2 156.4 257.6C156.4 250.6 154.8 244.1 151.6 238.1C148.6 232.1 143.5 226 136.3 219.8C129.3 213.6 119.6 206.9 107.2 199.7C98.6 194.7 90.4 189.5 82.6 184.1C74.8 178.5 68.4 172.1 63.4 164.9C58.4 157.5 55.9 148.7 55.9 138.5C55.9 123.3 61.4 111.1 72.4 101.9C83.4 92.5 97.9 87.8 115.9 87.8C123.9 87.8 132.5 88.7 141.7 90.5C150.9 92.1 158 94.2 163 96.8L161.5 113.6H159.7C148.3 101.2 133.7 95 115.9 95C103.1 95 92.8 98.3 85 104.9C77.2 111.3 73.3 120 73.3 131C73.3 139.2 75.4 146.3 79.6 152.3C84 158.1 89.6 163.4 96.4 168.2C103.2 172.8 110.5 177.3 118.3 181.7C127.3 186.9 136 192.4 144.4 198.2C153 204 160 211 165.4 219.2C171 227.2 173.8 237.3 173.8 249.5C173.8 260.7 171.2 270.6 166 279.2C160.8 287.6 153.4 294.2 143.8 299C134.4 303.8 123.4 306.2 110.8 306.2C102.8 306.2 93.4 305.2 82.6 303.2C71.8 301.2 61.5 298.6 51.7 295.4ZM154.091 200.5C154.091 185.613 156.701 171.79 161.921 159.03C167.334 146.077 174.777 134.863 184.251 125.39C193.917 115.723 205.131 108.28 217.891 103.06C230.844 97.6467 244.764 94.94 259.651 94.94C274.537 94.94 288.361 97.6467 301.121 103.06C314.074 108.28 325.287 115.723 334.761 125.39C344.427 134.863 351.871 146.077 357.091 159.03C362.504 171.79 365.211 185.613 365.211 200.5C365.211 215.387 362.504 229.307 357.091 242.26C351.871 255.02 344.427 266.233 334.761 275.9C325.287 285.373 314.074 292.817 301.121 298.23C288.361 303.45 274.537 306.06 259.651 306.06C244.764 306.06 230.844 303.45 217.891 298.23C205.131 292.817 193.917 285.373 184.251 275.9C174.777 266.233 167.334 255.02 161.921 242.26C156.701 229.307 154.091 215.387 154.091 200.5ZM176.131 200.5C176.131 220.22 179.611 237.523 186.571 252.41C193.531 267.103 203.294 278.607 215.861 286.92C228.427 295.04 243.024 299.1 259.651 299.1C276.277 299.1 290.874 295.04 303.441 286.92C316.007 278.607 325.771 267.007 332.731 252.12C339.691 237.233 343.171 220.027 343.171 200.5C343.171 180.973 339.691 163.863 332.731 149.17C325.771 134.283 316.007 122.683 303.441 114.37C290.874 106.057 276.277 101.9 259.651 101.9C243.024 101.9 228.427 106.057 215.861 114.37C203.487 122.49 193.724 133.993 186.571 148.88C179.611 163.573 176.131 180.78 176.131 200.5ZM354.972 302L362.222 94.94H365.702L511.572 271.26H513.312L506.932 99H526.652L519.402 306.06H515.922L370.052 129.74H368.312L374.692 302H354.972ZM516.579 302V99H580.379C602.806 99 622.333 103.253 638.959 111.76C655.586 120.267 668.539 132.157 677.819 147.43C687.099 162.51 691.739 180.2 691.739 200.5C691.739 220.8 687.099 238.587 677.819 253.86C668.539 268.94 655.586 280.733 638.959 289.24C622.333 297.747 602.806 302 580.379 302H516.579ZM580.379 105.96H536.299V295.04H580.379C608.413 295.04 630.259 286.727 645.919 270.1C661.773 253.473 669.699 230.273 669.699 200.5C669.699 170.727 661.773 147.527 645.919 130.9C630.259 114.273 608.413 105.96 580.379 105.96ZM672.871 302V92H764.371V106.7L711.871 99.8C702.671 98.6 696.471 98 693.271 98V189.5C695.871 189.5 702.071 189.2 711.871 188.6L761.071 185.6V199.4L711.871 196.4C702.071 195.8 695.871 195.5 693.271 195.5V296C696.871 296 703.171 295.4 712.171 294.2L765.271 287.3V302H672.871ZM759.004 92H799.204C820.404 92 836.804 96.5 848.404 105.5C860.204 114.3 866.104 126.7 866.104 142.7C866.104 155.1 862.404 165.4 855.004 173.6C847.804 181.8 837.304 187.3 823.504 190.1V191.9C836.704 194.5 847.504 200.7 855.904 210.5C864.304 220.3 870.604 232.4 874.804 246.8C878.604 260 882.304 270.3 885.904 277.7C889.704 284.9 893.804 290.1 898.204 293.3C902.804 296.5 908.204 298.8 914.404 300.2V302H902.104C893.304 302 886.004 300.4 880.204 297.2C874.604 294 869.804 288.6 865.804 281C861.804 273.4 858.004 262.9 854.404 249.5C848.604 228.9 840.904 214.3 831.304 205.7C821.704 197.1 810.004 192.8 796.204 192.8H794.404V187.4H796.204C828.404 187.4 844.504 172.6 844.504 143C844.504 113.8 829.404 99.2 799.204 99.2H779.404V302H759.004V92Z" fill="#75726D"/>
<g opacity="0.25">
<path d="M500.7 382.4L502.5 364.4H504.3C512.1 371.2 520.9 376.5 530.7 380.3C540.5 384.1 550.2 386 559.8 386C573.4 386 584.4 382.3 592.8 374.9C601.2 367.3 605.4 357.2 605.4 344.6C605.4 337.6 603.8 331.1 600.6 325.1C597.6 319.1 592.5 313 585.3 306.8C578.3 300.6 568.6 293.9 556.2 286.7C547.6 281.7 539.4 276.5 531.6 271.1C523.8 265.5 517.4 259.1 512.4 251.9C507.4 244.5 504.9 235.7 504.9 225.5C504.9 210.3 510.4 198.1 521.4 188.9C532.4 179.5 546.9 174.8 564.9 174.8C572.9 174.8 581.5 175.7 590.7 177.5C599.9 179.1 607 181.2 612 183.8L610.5 200.6H608.7C597.3 188.2 582.7 182 564.9 182C552.1 182 541.8 185.3 534 191.9C526.2 198.3 522.3 207 522.3 218C522.3 226.2 524.4 233.3 528.6 239.3C533 245.1 538.6 250.4 545.4 255.2C552.2 259.8 559.5 264.3 567.3 268.7C576.3 273.9 585 279.4 593.4 285.2C602 291 609 298 614.4 306.2C620 314.2 622.8 324.3 622.8 336.5C622.8 347.7 620.2 357.6 615 366.2C609.8 374.6 602.4 381.2 592.8 386C583.4 390.8 572.4 393.2 559.8 393.2C551.8 393.2 542.4 392.2 531.6 390.2C520.8 388.2 510.5 385.6 500.7 382.4ZM603.091 287.5C603.091 272.613 605.701 258.79 610.921 246.03C616.334 233.077 623.777 221.863 633.251 212.39C642.917 202.723 654.131 195.28 666.891 190.06C679.844 184.647 693.764 181.94 708.651 181.94C723.537 181.94 737.361 184.647 750.121 190.06C763.074 195.28 774.287 202.723 783.761 212.39C793.427 221.863 800.871 233.077 806.091 246.03C811.504 258.79 814.211 272.613 814.211 287.5C814.211 302.387 811.504 316.307 806.091 329.26C800.871 342.02 793.427 353.233 783.761 362.9C774.287 372.373 763.074 379.817 750.121 385.23C737.361 390.45 723.537 393.06 708.651 393.06C693.764 393.06 679.844 390.45 666.891 385.23C654.131 379.817 642.917 372.373 633.251 362.9C623.777 353.233 616.334 342.02 610.921 329.26C605.701 316.307 603.091 302.387 603.091 287.5ZM625.131 287.5C625.131 307.22 628.611 324.523 635.571 339.41C642.531 354.103 652.294 365.607 664.861 373.92C677.427 382.04 692.024 386.1 708.651 386.1C725.277 386.1 739.874 382.04 752.441 373.92C765.007 365.607 774.771 354.007 781.731 339.12C788.691 324.233 792.171 307.027 792.171 287.5C792.171 267.973 788.691 250.863 781.731 236.17C774.771 221.283 765.007 209.683 752.441 201.37C739.874 193.057 725.277 188.9 708.651 188.9C692.024 188.9 677.427 193.057 664.861 201.37C652.487 209.49 642.724 220.993 635.571 235.88C628.611 250.573 625.131 267.78 625.131 287.5ZM803.972 389L811.222 181.94H814.702L960.572 358.26H962.312L955.932 186H975.652L968.402 393.06H964.922L819.052 216.74H817.312L823.692 389H803.972ZM965.579 389V186H1029.38C1051.81 186 1071.33 190.253 1087.96 198.76C1104.59 207.267 1117.54 219.157 1126.82 234.43C1136.1 249.51 1140.74 267.2 1140.74 287.5C1140.74 307.8 1136.1 325.587 1126.82 340.86C1117.54 355.94 1104.59 367.733 1087.96 376.24C1071.33 384.747 1051.81 389 1029.38 389H965.579ZM1029.38 192.96H985.299V382.04H1029.38C1057.41 382.04 1079.26 373.727 1094.92 357.1C1110.77 340.473 1118.7 317.273 1118.7 287.5C1118.7 257.727 1110.77 234.527 1094.92 217.9C1079.26 201.273 1057.41 192.96 1029.38 192.96ZM1121.87 389V179H1213.37V193.7L1160.87 186.8C1151.67 185.6 1145.47 185 1142.27 185V276.5C1144.87 276.5 1151.07 276.2 1160.87 275.6L1210.07 272.6V286.4L1160.87 283.4C1151.07 282.8 1144.87 282.5 1142.27 282.5V383C1145.87 383 1152.17 382.4 1161.17 381.2L1214.27 374.3V389H1121.87ZM1214 179H1254.2C1275.4 179 1291.8 183.5 1303.4 192.5C1315.2 201.3 1321.1 213.7 1321.1 229.7C1321.1 242.1 1317.4 252.4 1310 260.6C1302.8 268.8 1292.3 274.3 1278.5 277.1V278.9C1291.7 281.5 1302.5 287.7 1310.9 297.5C1319.3 307.3 1325.6 319.4 1329.8 333.8C1333.6 347 1337.3 357.3 1340.9 364.7C1344.7 371.9 1348.8 377.1 1353.2 380.3C1357.8 383.5 1363.2 385.8 1369.4 387.2V389H1357.1C1348.3 389 1341 387.4 1335.2 384.2C1329.6 381 1324.8 375.6 1320.8 368C1316.8 360.4 1313 349.9 1309.4 336.5C1303.6 315.9 1295.9 301.3 1286.3 292.7C1276.7 284.1 1265 279.8 1251.2 279.8H1249.4V274.4H1251.2C1283.4 274.4 1299.5 259.6 1299.5 230C1299.5 200.8 1284.4 186.2 1254.2 186.2H1234.4V389H1214V179Z" fill="#75726D"/>
</g>
<g opacity="0.07">
<path d="M-336.3 525.4L-334.5 507.4H-332.7C-324.9 514.2 -316.1 519.5 -306.3 523.3C-296.5 527.1 -286.8 529 -277.2 529C-263.6 529 -252.6 525.3 -244.2 517.9C-235.8 510.3 -231.6 500.2 -231.6 487.6C-231.6 480.6 -233.2 474.1 -236.4 468.1C-239.4 462.1 -244.5 456 -251.7 449.8C-258.7 443.6 -268.4 436.9 -280.8 429.7C-289.4 424.7 -297.6 419.5 -305.4 414.1C-313.2 408.5 -319.6 402.1 -324.6 394.9C-329.6 387.5 -332.1 378.7 -332.1 368.5C-332.1 353.3 -326.6 341.1 -315.6 331.9C-304.6 322.5 -290.1 317.8 -272.1 317.8C-264.1 317.8 -255.5 318.7 -246.3 320.5C-237.1 322.1 -230 324.2 -225 326.8L-226.5 343.6H-228.3C-239.7 331.2 -254.3 325 -272.1 325C-284.9 325 -295.2 328.3 -303 334.9C-310.8 341.3 -314.7 350 -314.7 361C-314.7 369.2 -312.6 376.3 -308.4 382.3C-304 388.1 -298.4 393.4 -291.6 398.2C-284.8 402.8 -277.5 407.3 -269.7 411.7C-260.7 416.9 -252 422.4 -243.6 428.2C-235 434 -228 441 -222.6 449.2C-217 457.2 -214.2 467.3 -214.2 479.5C-214.2 490.7 -216.8 500.6 -222 509.2C-227.2 517.6 -234.6 524.2 -244.2 529C-253.6 533.8 -264.6 536.2 -277.2 536.2C-285.2 536.2 -294.6 535.2 -305.4 533.2C-316.2 531.2 -326.5 528.6 -336.3 525.4ZM-233.909 430.5C-233.909 415.613 -231.299 401.79 -226.079 389.03C-220.666 376.077 -213.223 364.863 -203.749 355.39C-194.083 345.723 -182.869 338.28 -170.109 333.06C-157.156 327.647 -143.236 324.94 -128.349 324.94C-113.463 324.94 -99.6394 327.647 -86.8794 333.06C-73.926 338.28 -62.7127 345.723 -53.2394 355.39C-43.5727 364.863 -36.1294 376.077 -30.9094 389.03C-25.496 401.79 -22.7894 415.613 -22.7894 430.5C-22.7894 445.387 -25.496 459.307 -30.9094 472.26C-36.1294 485.02 -43.5727 496.233 -53.2394 505.9C-62.7127 515.373 -73.926 522.817 -86.8794 528.23C-99.6394 533.45 -113.463 536.06 -128.349 536.06C-143.236 536.06 -157.156 533.45 -170.109 528.23C-182.869 522.817 -194.083 515.373 -203.749 505.9C-213.223 496.233 -220.666 485.02 -226.079 472.26C-231.299 459.307 -233.909 445.387 -233.909 430.5ZM-211.869 430.5C-211.869 450.22 -208.389 467.523 -201.429 482.41C-194.469 497.103 -184.706 508.607 -172.139 516.92C-159.573 525.04 -144.976 529.1 -128.349 529.1C-111.723 529.1 -97.126 525.04 -84.5594 516.92C-71.9927 508.607 -62.2294 497.007 -55.2694 482.12C-48.3094 467.233 -44.8294 450.027 -44.8294 430.5C-44.8294 410.973 -48.3094 393.863 -55.2694 379.17C-62.2294 364.283 -71.9927 352.683 -84.5594 344.37C-97.126 336.057 -111.723 331.9 -128.349 331.9C-144.976 331.9 -159.573 336.057 -172.139 344.37C-184.513 352.49 -194.276 363.993 -201.429 378.88C-208.389 393.573 -211.869 410.78 -211.869 430.5ZM-27.2277 532L-19.9777 324.94H-16.4977L129.372 501.26H131.112L124.732 329H144.452L137.202 536.06H133.722L-12.1477 359.74H-13.8877L-7.50772 532H-27.2277ZM134.379 532V329H198.179C220.606 329 240.133 333.253 256.759 341.76C273.386 350.267 286.339 362.157 295.619 377.43C304.899 392.51 309.539 410.2 309.539 430.5C309.539 450.8 304.899 468.587 295.619 483.86C286.339 498.94 273.386 510.733 256.759 519.24C240.133 527.747 220.606 532 198.179 532H134.379ZM198.179 335.96H154.099V525.04H198.179C226.213 525.04 248.059 516.727 263.719 500.1C279.573 483.473 287.499 460.273 287.499 430.5C287.499 400.727 279.573 377.527 263.719 360.9C248.059 344.273 226.213 335.96 198.179 335.96ZM290.671 532V322H382.171V336.7L329.671 329.8C320.471 328.6 314.271 328 311.071 328V419.5C313.671 419.5 319.871 419.2 329.671 418.6L378.871 415.6V429.4L329.671 426.4C319.871 425.8 313.671 425.5 311.071 425.5V526C314.671 526 320.971 525.4 329.971 524.2L383.071 517.3V532H290.671ZM382.804 322H423.004C444.204 322 460.604 326.5 472.204 335.5C484.004 344.3 489.904 356.7 489.904 372.7C489.904 385.1 486.204 395.4 478.804 403.6C471.604 411.8 461.104 417.3 447.304 420.1V421.9C460.504 424.5 471.304 430.7 479.704 440.5C488.104 450.3 494.404 462.4 498.604 476.8C502.404 490 506.104 500.3 509.704 507.7C513.504 514.9 517.604 520.1 522.004 523.3C526.604 526.5 532.004 528.8 538.204 530.2V532H525.904C517.104 532 509.804 530.4 504.004 527.2C498.404 524 493.604 518.6 489.604 511C485.604 503.4 481.804 492.9 478.204 479.5C472.404 458.9 464.704 444.3 455.104 435.7C445.504 427.1 433.804 422.8 420.004 422.8H418.204V417.4H420.004C452.204 417.4 468.304 402.6 468.304 373C468.304 343.8 453.204 329.2 423.004 329.2H403.204V532H382.804V322Z" fill="#75726D"/>
</g>
<g opacity="0.64">
<path d="M-84.75 107.5L-83.25 92.5H-81.75C-75.25 98.1667 -67.9167 102.583 -59.75 105.75C-51.5833 108.917 -43.5 110.5 -35.5 110.5C-24.1667 110.5 -15 107.417 -8 101.25C-0.999996 94.9167 2.5 86.5 2.5 76C2.5 70.1667 1.16667 64.75 -1.5 59.75C-4 54.75 -8.25 49.6667 -14.25 44.5C-20.0833 39.3333 -28.1667 33.75 -38.5 27.75C-45.6667 23.5833 -52.5 19.25 -59 14.75C-65.5 10.0833 -70.8333 4.74999 -75 -1.25C-79.1667 -7.41667 -81.25 -14.75 -81.25 -23.25C-81.25 -35.9167 -76.6667 -46.0833 -67.5 -53.75C-58.3333 -61.5833 -46.25 -65.5 -31.25 -65.5C-24.5833 -65.5 -17.4167 -64.75 -9.75 -63.25C-2.08333 -61.9167 3.83334 -60.1667 8.00001 -58L6.75001 -44H5.25001C-4.25 -54.3333 -16.4167 -59.5 -31.25 -59.5C-41.9167 -59.5 -50.5 -56.75 -57 -51.25C-63.5 -45.9167 -66.75 -38.6667 -66.75 -29.5C-66.75 -22.6667 -65 -16.75 -61.5 -11.75C-57.8333 -6.91667 -53.1667 -2.50001 -47.5 1.5C-41.8333 5.33333 -35.75 9.08333 -29.25 12.75C-21.75 17.0833 -14.5 21.6667 -7.49999 26.5C-0.333326 31.3333 5.50001 37.1667 10 44C14.6667 50.6667 17 59.0833 17 69.25C17 78.5833 14.8333 86.8333 10.5 94C6.16667 101 5.54323e-06 106.5 -8 110.5C-15.8333 114.5 -25 116.5 -35.5 116.5C-42.1667 116.5 -50 115.667 -59 114C-68 112.333 -76.5833 110.167 -84.75 107.5ZM0.442189 29C0.442189 16.68 2.60219 5.24 6.92219 -5.32001C11.4022 -16.04 17.5622 -25.32 25.4022 -33.16C33.4022 -41.16 42.6822 -47.32 53.2422 -51.64C63.9622 -56.12 75.4822 -58.36 87.8022 -58.36C100.122 -58.36 111.562 -56.12 122.122 -51.64C132.842 -47.32 142.122 -41.16 149.962 -33.16C157.962 -25.32 164.122 -16.04 168.442 -5.32001C172.922 5.24 175.162 16.68 175.162 29C175.162 41.32 172.922 52.84 168.442 63.56C164.122 74.12 157.962 83.4 149.962 91.4C142.122 99.24 132.842 105.4 122.122 109.88C111.562 114.2 100.122 116.36 87.8022 116.36C75.4822 116.36 63.9622 114.2 53.2422 109.88C42.6822 105.4 33.4022 99.24 25.4022 91.4C17.5622 83.4 11.4022 74.12 6.92219 63.56C2.60219 52.84 0.442189 41.32 0.442189 29ZM18.6822 29C18.6822 45.32 21.5622 59.64 27.3222 71.96C33.0822 84.12 41.1622 93.64 51.5622 100.52C61.9622 107.24 74.0422 110.6 87.8022 110.6C101.562 110.6 113.642 107.24 124.042 100.52C134.442 93.64 142.522 84.04 148.282 71.72C154.042 59.4 156.922 45.16 156.922 29C156.922 12.84 154.042 -1.32001 148.282 -13.48C142.522 -25.8 134.442 -35.4 124.042 -42.28C113.642 -49.16 101.562 -52.6 87.8022 -52.6C74.0422 -52.6 61.9622 -49.16 51.5622 -42.28C41.3222 -35.56 33.2422 -26.04 27.3222 -13.72C21.5622 -1.56 18.6822 12.68 18.6822 29ZM164.289 113L170.289 -58.36H173.169L293.889 87.56H295.329L290.049 -55H306.369L300.369 116.36H297.489L176.769 -29.56H175.329L180.609 113H164.289ZM298.033 113V-55H350.833C369.393 -55 385.553 -51.48 399.313 -44.44C413.073 -37.4 423.793 -27.56 431.473 -14.92C439.153 -2.44001 442.993 12.2 442.993 29C442.993 45.8 439.153 60.52 431.473 73.16C423.793 85.64 413.073 95.4 399.313 102.44C385.553 109.48 369.393 113 350.833 113H298.033ZM350.833 -49.24H314.353V107.24H350.833C374.033 107.24 392.113 100.36 405.073 86.6C418.193 72.84 424.753 53.64 424.753 29C424.753 4.36 418.193 -14.84 405.073 -28.6C392.113 -42.36 374.033 -49.24 350.833 -49.24ZM427.602 113V-62H503.852V-49.75L460.102 -55.5C452.435 -56.5 447.268 -57 444.602 -57V19.25C446.768 19.25 451.935 19 460.102 18.5L501.102 16V27.5L460.102 25C451.935 24.5 446.768 24.25 444.602 24.25V108C447.602 108 452.852 107.5 460.352 106.5L504.602 100.75V113H427.602ZM504.379 -62H537.879C555.546 -62 569.212 -58.25 578.879 -50.75C588.712 -43.4167 593.629 -33.0833 593.629 -19.75C593.629 -9.41667 590.546 -0.833338 584.379 5.99999C578.379 12.8333 569.629 17.4167 558.129 19.75V21.25C569.129 23.4167 578.129 28.5833 585.129 36.75C592.129 44.9167 597.379 55 600.879 67C604.046 78 607.129 86.5833 610.129 92.75C613.296 98.75 616.712 103.083 620.379 105.75C624.212 108.417 628.712 110.333 633.879 111.5V113H623.629C616.296 113 610.212 111.667 605.379 109C600.712 106.333 596.712 101.833 593.379 95.5C590.046 89.1667 586.879 80.4167 583.879 69.25C579.046 52.0833 572.629 39.9167 564.629 32.75C556.629 25.5833 546.879 22 535.379 22H533.879V17.5H535.379C562.212 17.5 575.629 5.16666 575.629 -19.5C575.629 -43.8333 563.046 -56 537.879 -56H521.379V113H504.379V-62Z" fill="#75726D"/>
</g>
</svg>
